<svg id="Layer_1" data-name="Layer 1" xmlns="http://www.w3.org/2000/svg" viewBox="0 0 29.25 24.08"><defs><style>.cls-1{fill-rule:evenodd;}</style></defs><title>icon-twitter-black</title><path class="cls-1" d="M26.22,6a3.38,3.38,0,0,1,.06.75,17.41,17.41,0,0,1-2,8.05,16.41,16.41,0,0,1-5.77,6.54A16.27,16.27,0,0,1,9.2,24.08,16.45,16.45,0,0,1,0,21.36c.42,0,.9.06,1.43.06a11.82,11.82,0,0,0,7.48-2.6A5.54,5.54,0,0,1,5.4,17.63a6.06,6.06,0,0,1-2.09-3,10.41,10.41,0,0,0,1.09,0A7.25,7.25,0,0,0,6,14.53a6.06,6.06,0,0,1-3.43-2.14A5.89,5.89,0,0,1,1.2,8.57V8.45a5.63,5.63,0,0,0,2.69.81,6.78,6.78,0,0,1-1.95-2.2,6,6,0,0,1,.12-6A16.57,16.57,0,0,0,7.51,5.62,16.64,16.64,0,0,0,14.4,7.47a8.16,8.16,0,0,1-.12-1.39,6.11,6.11,0,0,1,.8-3A6,6,0,0,1,17.25.81a5.77,5.77,0,0,1,3-.81,5.61,5.61,0,0,1,2.43.52,6.7,6.7,0,0,1,2,1.39A11.91,11.91,0,0,0,28.45.46a6,6,0,0,1-2.63,3.36,12.56,12.56,0,0,0,3.43-1A13.47,13.47,0,0,1,26.22,6Z"/></svg>