<svg id="Layer_1" data-name="Layer 1" xmlns="http://www.w3.org/2000/svg" viewBox="0 0 24.72 25.05"><defs><style>.cls-1{fill-rule:evenodd;}</style></defs><title>icon-facebook-black</title><path class="cls-1" d="M24.72,1.4V23.65a1.4,1.4,0,0,1-.39,1,1.29,1.29,0,0,1-1,.42H17.05V15.32h3.2l.49-3.75H17.05V9.17a2.08,2.08,0,0,1,.33-1.34,1.88,1.88,0,0,1,1.49-.51h2V3.91c-.77-.07-1.72-.11-2.86-.11a4.77,4.77,0,0,0-3.48,1.29,4.9,4.9,0,0,0-1.32,3.69v2.79H10v3.75h3.2v9.73H1.38a1.26,1.26,0,0,1-1-.42,1.4,1.4,0,0,1-.39-1V1.4a1.37,1.37,0,0,1,.39-1,1.31,1.31,0,0,1,1-.39h22a1.34,1.34,0,0,1,1,.39A1.32,1.32,0,0,1,24.72,1.4Z"/></svg>